<svg id="Laag_1" data-name="Laag 1" xmlns="http://www.w3.org/2000/svg" xmlns:xlink="http://www.w3.org/1999/xlink" viewBox="0 0 99.19 110.42"><defs><clipPath id="clip-path"><rect x="13.65" y="37.71" width="65.49" height="44.63" fill="none"/></clipPath></defs><g id="Group_47" data-name="Group 47"><g clip-path="url(#clip-path)"><g id="Group_46" data-name="Group 46"><g id="Path_583" data-name="Path 583"><path d="M60,75.94a2.5,2.5,0,0,1-1.72-4.31L70.54,60,58.32,48.42a2.5,2.5,0,1,1,3.45-3.63L75.89,58.2a2.5,2.5,0,0,1,0,3.63L61.77,75.26A2.56,2.56,0,0,1,60,75.94Z" fill="#fea233"/></g><g id="Line_103" data-name="Line 103"><path d="M74.17,62.52h-54a2.5,2.5,0,1,1,0-5h54a2.5,2.5,0,0,1,0,5Z" fill="#fea233"/></g></g></g></g></svg>